<?xml version="1.0" encoding="UTF-8"?>
<!DOCTYPE svg PUBLIC "-//W3C//DTD SVG 1.1//EN" "http://www.w3.org/Graphics/SVG/1.1/DTD/svg11.dtd">
<svg xmlns="http://www.w3.org/2000/svg" version="1.1" width="512px" height="512px" style="shape-rendering:geometricPrecision; text-rendering:geometricPrecision; image-rendering:optimizeQuality; fill-rule:evenodd; clip-rule:evenodd" xmlns:xlink="http://www.w3.org/1999/xlink">
<g><path style="opacity:0.987" fill="#ba9bba" d="M 159.5,72.5 C 159.19,71.2617 158.69,71.2617 158,72.5C 138.632,52.965 119.132,33.6316 99.5,14.5C 99.9175,13.7784 100.584,13.2784 101.5,13C 120.616,14.9293 137.95,21.596 153.5,33C 164.307,44.8768 166.307,58.0435 159.5,72.5 Z"/></g>
<g><path style="opacity:0.987" fill="#ba9aba" d="M 274.5,69.5 C 256.884,53.5518 239.884,36.8851 223.5,19.5C 231.537,14.9911 240.204,12.8244 249.5,13C 250.833,13.6667 252.167,14.3333 253.5,15C 265.38,31.2651 272.38,49.4317 274.5,69.5 Z"/></g>
<g><path style="opacity:0.991" fill="#b18eb1" d="M 99.5,14.5 C 119.132,33.6316 138.632,52.965 158,72.5C 158.69,71.2617 159.19,71.2617 159.5,72.5C 157.278,78.264 153.612,82.9307 148.5,86.5C 128.833,67.1667 109.167,47.8333 89.5,28.5C 91.3068,24.8864 93.1401,21.2198 95,17.5C 96.129,15.8588 97.629,14.8588 99.5,14.5 Z"/></g>
<g><path style="opacity:0.993" fill="#b18eb1" d="M 223.5,19.5 C 239.884,36.8851 256.884,53.5518 274.5,69.5C 273.691,76.1148 271.024,81.7815 266.5,86.5C 246.115,67.1162 226.449,47.1162 207.5,26.5C 212.475,23.3954 217.808,21.0621 223.5,19.5 Z"/></g>
<g><path style="opacity:0.991" fill="#ac86ac" d="M 207.5,26.5 C 226.449,47.1162 246.115,67.1162 266.5,86.5C 265.109,88.8903 263.109,90.5569 260.5,91.5C 240.251,72.7535 220.418,53.4201 201,33.5C 200.536,32.9056 200.369,32.2389 200.5,31.5C 202.531,29.4776 204.865,27.8109 207.5,26.5 Z"/></g>
<g><path style="opacity:0.991" fill="#ac86ac" d="M 89.5,28.5 C 109.167,47.8333 128.833,67.1667 148.5,86.5C 146.704,88.9 144.37,90.5667 141.5,91.5C 123.368,73.8684 105.368,56.0351 87.5,38C 86.9056,37.5357 86.2389,37.369 85.5,37.5C 86.0749,34.0884 87.4082,31.0884 89.5,28.5 Z"/></g>
<g><path style="opacity:0.994" fill="#a47ca4" d="M 200.5,31.5 C 200.369,32.2389 200.536,32.9056 201,33.5C 220.418,53.4201 240.251,72.7535 260.5,91.5C 254.063,96.3155 246.729,98.9821 238.5,99.5C 222.552,81.8843 205.885,64.8843 188.5,48.5C 190.211,41.1367 194.211,35.47 200.5,31.5 Z"/></g>
<g><path style="opacity:0.989" fill="#a67ea6" d="M 85.5,37.5 C 86.2389,37.369 86.9056,37.5357 87.5,38C 105.368,56.0351 123.368,73.8684 141.5,91.5C 135.627,95.7928 128.96,98.1261 121.5,98.5C 107.5,83.8333 93.1667,69.5 78.5,55.5C 80.067,49.1204 82.4004,43.1204 85.5,37.5 Z"/></g>
<g><path style="opacity:0.98" fill="#9e719e" d="M 78.5,55.5 C 93.1667,69.5 107.5,83.8333 121.5,98.5C 104.941,101.143 91.4405,95.8094 81,82.5C 76.2623,73.8422 75.429,64.8422 78.5,55.5 Z"/></g>
<g><path style="opacity:0.942" fill="#9c709c" d="M 188.5,48.5 C 205.885,64.8843 222.552,81.8843 238.5,99.5C 217.195,99.9357 201.362,90.9357 191,72.5C 187.631,64.7314 186.798,56.7314 188.5,48.5 Z"/></g>
<g><path style="opacity:0.977" fill="#bda0bd" d="M 308.5,89.5 C 315.615,89.0753 322.615,89.5753 329.5,91C 331.378,92.5429 332.878,94.3762 334,96.5C 335.822,103.446 337.322,110.446 338.5,117.5C 337.883,117.611 337.383,117.944 337,118.5C 327.298,108.965 317.798,99.2984 308.5,89.5 Z"/></g>
<g><path style="opacity:0.99" fill="#b594b5" d="M 308.5,89.5 C 317.798,99.2984 327.298,108.965 337,118.5C 337.383,117.944 337.883,117.611 338.5,117.5C 339.739,127.514 339.739,137.514 338.5,147.5C 321.229,129.728 303.729,112.062 286,94.5C 285.536,93.9056 285.369,93.2389 285.5,92.5C 293.008,90.603 300.675,89.603 308.5,89.5 Z"/></g>
<g><path style="opacity:0.991" fill="#b08cb0" d="M 285.5,92.5 C 285.369,93.2389 285.536,93.9056 286,94.5C 303.729,112.062 321.229,129.728 338.5,147.5C 337.925,150.912 336.592,153.912 334.5,156.5C 314.783,135.782 294.45,115.782 273.5,96.5C 277.098,94.2597 281.098,92.9264 285.5,92.5 Z"/></g>
<g><path style="opacity:0.994" fill="#ac86ac" d="M 273.5,96.5 C 294.45,115.782 314.783,135.782 334.5,156.5C 333.581,159.089 331.914,161.089 329.5,162.5C 308.5,142.167 287.833,121.5 267.5,100.5C 269.147,98.6736 271.147,97.3403 273.5,96.5 Z"/></g>
<g><path style="opacity:0.993" fill="#b290b2" d="M 38.5,97.5 C 55.5508,115.552 73.2175,132.885 91.5,149.5C 88.8081,155.566 85.1414,160.9 80.5,165.5C 60.1163,144.116 39.1163,123.449 17.5,103.5C 19.0038,101.164 21.0038,99.331 23.5,98C 28.4889,97.5007 33.4889,97.3341 38.5,97.5 Z"/></g>
<g><path style="opacity:0.986" fill="#ba9bba" d="M 38.5,97.5 C 54.0872,96.7829 68.7539,99.9495 82.5,107C 94.8624,119.082 97.8624,133.249 91.5,149.5C 73.2175,132.885 55.5508,115.552 38.5,97.5 Z"/></g>
<g><path style="opacity:0.989" fill="#a77fa7" d="M 267.5,100.5 C 287.833,121.5 308.5,142.167 329.5,162.5C 327.37,165.737 324.37,167.737 320.5,168.5C 300.5,148.833 280.5,129.167 260.5,109.5C 261.694,105.637 264.027,102.637 267.5,100.5 Z"/></g>
<g><path style="opacity:0.992" fill="#ac86ac" d="M 17.5,103.5 C 39.1163,123.449 60.1163,144.116 80.5,165.5C 78.1918,167.471 75.8585,169.471 73.5,171.5C 55.0869,151.585 36.0869,132.085 16.5,113C 15.9056,112.536 15.2389,112.369 14.5,112.5C 15.3456,109.452 16.3456,106.452 17.5,103.5 Z"/></g>
<g><path style="opacity:0.994" fill="#b898b8" d="M 171.5,107.5 C 200.861,137.194 230.194,166.86 259.5,196.5C 259.273,203.181 257.273,209.181 253.5,214.5C 219.701,181.201 186.035,147.701 152.5,114C 151.207,113.51 149.873,113.343 148.5,113.5C 155.613,109.804 163.28,107.804 171.5,107.5 Z"/></g>
<g><path style="opacity:0.991" fill="#bea0be" d="M 171.5,107.5 C 188.855,106.254 204.521,110.754 218.5,121C 239.159,136.334 252.659,156.501 259,181.5C 259.499,186.489 259.666,191.489 259.5,196.5C 230.194,166.86 200.861,137.194 171.5,107.5 Z"/></g>
<g><path style="opacity:0.994" fill="#a277a1" d="M 260.5,109.5 C 280.5,129.167 300.5,148.833 320.5,168.5C 313.287,172.192 305.62,173.192 297.5,171.5C 284.782,157.78 271.448,144.78 257.5,132.5C 256.352,128.019 256.185,123.352 257,118.5C 257.505,115.135 258.672,112.135 260.5,109.5 Z"/></g>
<g><path style="opacity:0.994" fill="#b492b4" d="M 148.5,113.5 C 149.873,113.343 151.207,113.51 152.5,114C 186.035,147.701 219.701,181.201 253.5,214.5C 251.375,219.743 248.042,224.077 243.5,227.5C 208.167,191.5 172.5,155.833 136.5,120.5C 139.976,117.377 143.976,115.043 148.5,113.5 Z"/></g>
<g><path style="opacity:0.989" fill="#a67ea6" d="M 14.5,112.5 C 15.2389,112.369 15.9056,112.536 16.5,113C 36.0869,132.085 55.0869,151.585 73.5,171.5C 67.7675,175.531 61.4341,178.198 54.5,179.5C 54.631,178.761 54.4643,178.094 54,177.5C 39.6043,163.272 25.4376,148.938 11.5,134.5C 12.4996,127.17 13.4996,119.837 14.5,112.5 Z"/></g>
<g><path style="opacity:0.996" fill="#b08cb0" d="M 136.5,120.5 C 172.5,155.833 208.167,191.5 243.5,227.5C 239.909,231.299 235.909,234.633 231.5,237.5C 196.752,201.25 161.418,165.417 125.5,130C 126.738,129.31 126.738,128.81 125.5,128.5C 128.627,125.102 132.293,122.435 136.5,120.5 Z"/></g>
<g><path style="opacity:0.995" fill="#ac86ac" d="M 125.5,128.5 C 126.738,128.81 126.738,129.31 125.5,130C 161.418,165.417 196.752,201.25 231.5,237.5C 227.044,240.211 222.377,242.544 217.5,244.5C 183.451,209.45 148.784,175.117 113.5,141.5C 116.792,136.54 120.792,132.207 125.5,128.5 Z"/></g>
<g><path style="opacity:0.942" fill="#9a6d9a" d="M 257.5,132.5 C 271.448,144.78 284.782,157.78 297.5,171.5C 275.574,167.24 262.241,154.24 257.5,132.5 Z"/></g>
<g><path style="opacity:0.977" fill="#9e729e" d="M 11.5,134.5 C 25.4376,148.938 39.6043,163.272 54,177.5C 54.4643,178.094 54.631,178.761 54.5,179.5C 39.4958,182.293 26.9958,177.96 17,166.5C 12.0455,156.424 10.2121,145.757 11.5,134.5 Z"/></g>
<g><path style="opacity:0.995" fill="#a77fa7" d="M 113.5,141.5 C 148.784,175.117 183.451,209.45 217.5,244.5C 211.082,247.104 204.415,248.771 197.5,249.5C 166.5,218.167 135.5,186.833 104.5,155.5C 106.719,150.291 109.719,145.624 113.5,141.5 Z"/></g>
<g><path style="opacity:0.994" fill="#a379a3" d="M 104.5,155.5 C 135.5,186.833 166.5,218.167 197.5,249.5C 191.081,251.201 184.415,251.867 177.5,251.5C 150.833,224.5 124.167,197.5 97.5,170.5C 98.5144,164.808 100.848,159.808 104.5,155.5 Z"/></g>
<g><path style="opacity:0.992" fill="#9f739f" d="M 97.5,170.5 C 124.167,197.5 150.833,224.5 177.5,251.5C 169.392,251.827 161.392,251.16 153.5,249.5C 133.833,229.167 113.833,209.167 93.5,189.5C 93.3192,182.731 94.6526,176.398 97.5,170.5 Z"/></g>
<g><path style="opacity:0.972" fill="#9b6d9b" d="M 93.5,189.5 C 113.833,209.167 133.833,229.167 153.5,249.5C 134.059,245.863 117.559,236.863 104,222.5C 96.1844,212.886 92.6844,201.886 93.5,189.5 Z"/></g>
<g><path style="opacity:0.989" fill="#ba9bba" d="M 327.5,327.5 C 327.19,326.262 326.69,326.262 326,327.5C 306.632,307.965 287.132,288.632 267.5,269.5C 267.918,268.778 268.584,268.278 269.5,268C 288.616,269.929 305.95,276.596 321.5,288C 332.307,299.877 334.307,313.043 327.5,327.5 Z"/></g>
<g><path style="opacity:0.988" fill="#ba9aba" d="M 442.5,324.5 C 424.884,308.552 407.884,291.885 391.5,274.5C 399.537,269.991 408.204,267.824 417.5,268C 418.833,268.667 420.167,269.333 421.5,270C 433.38,286.265 440.38,304.432 442.5,324.5 Z"/></g>
<g><path style="opacity:0.991" fill="#b18eb1" d="M 267.5,269.5 C 287.132,288.632 306.632,307.965 326,327.5C 326.69,326.262 327.19,326.262 327.5,327.5C 325.278,333.264 321.612,337.931 316.5,341.5C 296.473,322.14 276.806,302.473 257.5,282.5C 259.575,279.354 261.408,276.021 263,272.5C 264.129,270.859 265.629,269.859 267.5,269.5 Z"/></g>
<g><path style="opacity:0.991" fill="#b18eb1" d="M 391.5,274.5 C 407.884,291.885 424.884,308.552 442.5,324.5C 441.691,331.115 439.024,336.781 434.5,341.5C 414.5,321.833 394.5,302.167 374.5,282.5C 379.553,278.696 385.22,276.029 391.5,274.5 Z"/></g>
<g><path style="opacity:0.991" fill="#ac86ac" d="M 257.5,282.5 C 276.806,302.473 296.473,322.14 316.5,341.5C 314.704,343.9 312.37,345.567 309.5,346.5C 291.368,328.868 273.368,311.035 255.5,293C 254.906,292.536 254.239,292.369 253.5,292.5C 254.282,288.937 255.616,285.603 257.5,282.5 Z"/></g>
<g><path style="opacity:0.989" fill="#ac86ac" d="M 374.5,282.5 C 394.5,302.167 414.5,321.833 434.5,341.5C 432.781,344.219 430.447,346.219 427.5,347.5C 407.833,327.167 387.833,307.167 367.5,287.5C 369.296,285.1 371.63,283.433 374.5,282.5 Z"/></g>
<g><path style="opacity:0.99" fill="#a67ea6" d="M 253.5,292.5 C 254.239,292.369 254.906,292.536 255.5,293C 273.368,311.035 291.368,328.868 309.5,346.5C 303.627,350.793 296.96,353.126 289.5,353.5C 275.5,338.833 261.167,324.5 246.5,310.5C 248.067,304.12 250.4,298.12 253.5,292.5 Z"/></g>
<g><path style="opacity:0.992" fill="#a47ca4" d="M 367.5,287.5 C 387.833,307.167 407.833,327.167 427.5,347.5C 421.184,351.605 414.184,353.939 406.5,354.5C 390.552,336.884 373.885,319.884 356.5,303.5C 357.895,296.465 361.562,291.132 367.5,287.5 Z"/></g>
<g><path style="opacity:0.98" fill="#9e719e" d="M 246.5,310.5 C 261.167,324.5 275.5,338.833 289.5,353.5C 272.941,356.143 259.441,350.809 249,337.5C 244.262,328.842 243.429,319.842 246.5,310.5 Z"/></g>
<g><path style="opacity:0.938" fill="#9c709c" d="M 356.5,303.5 C 373.885,319.884 390.552,336.884 406.5,354.5C 385.195,354.936 369.362,345.936 359,327.5C 355.631,319.731 354.798,311.731 356.5,303.5 Z"/></g>
<g><path style="opacity:0.977" fill="#bda0bd" d="M 476.5,344.5 C 483.615,344.075 490.615,344.575 497.5,346C 499.378,347.543 500.878,349.376 502,351.5C 503.822,358.446 505.322,365.446 506.5,372.5C 505.883,372.611 505.383,372.944 505,373.5C 495.298,363.965 485.798,354.298 476.5,344.5 Z"/></g>
<g><path style="opacity:0.99" fill="#b594b5" d="M 476.5,344.5 C 485.798,354.298 495.298,363.965 505,373.5C 505.383,372.944 505.883,372.611 506.5,372.5C 507.739,382.514 507.739,392.514 506.5,402.5C 489.229,384.728 471.729,367.062 454,349.5C 453.536,348.906 453.369,348.239 453.5,347.5C 461.008,345.603 468.675,344.603 476.5,344.5 Z"/></g>
<g><path style="opacity:0.991" fill="#b08cb0" d="M 453.5,347.5 C 453.369,348.239 453.536,348.906 454,349.5C 471.729,367.062 489.229,384.728 506.5,402.5C 505.925,405.912 504.592,408.912 502.5,411.5C 482.783,390.782 462.45,370.782 441.5,351.5C 445.098,349.26 449.098,347.926 453.5,347.5 Z"/></g>
<g><path style="opacity:0.994" fill="#ac86ac" d="M 441.5,351.5 C 462.45,370.782 482.783,390.782 502.5,411.5C 501.581,414.089 499.914,416.089 497.5,417.5C 476.5,397.167 455.833,376.5 435.5,355.5C 437.147,353.674 439.147,352.34 441.5,351.5 Z"/></g>
<g><path style="opacity:0.995" fill="#b492b4" d="M 194.5,352.5 C 198.5,352.5 202.5,352.5 206.5,352.5C 223.551,370.552 241.217,387.885 259.5,404.5C 258.32,407.54 256.653,410.206 254.5,412.5C 234.167,392.833 214.167,372.833 194.5,352.5 Z"/></g>
<g><path style="opacity:0.986" fill="#ba9bba" d="M 206.5,352.5 C 222.087,351.783 236.754,354.95 250.5,362C 262.862,374.082 265.862,388.249 259.5,404.5C 241.217,387.885 223.551,370.552 206.5,352.5 Z"/></g>
<g><path style="opacity:0.989" fill="#a77fa7" d="M 435.5,355.5 C 455.833,376.5 476.5,397.167 497.5,417.5C 495.37,420.737 492.37,422.737 488.5,423.5C 468.5,403.833 448.5,384.167 428.5,364.5C 429.694,360.637 432.027,357.637 435.5,355.5 Z"/></g>
<g><path style="opacity:0.992" fill="#ad88ad" d="M 194.5,352.5 C 214.167,372.833 234.167,392.833 254.5,412.5C 251.574,418.428 247.241,423.094 241.5,426.5C 223.087,406.585 204.087,387.085 184.5,368C 183.906,367.536 183.239,367.369 182.5,367.5C 182.968,359.518 186.968,354.518 194.5,352.5 Z"/></g>
<g><path style="opacity:0.994" fill="#b898b8" d="M 339.5,362.5 C 368.861,392.194 398.194,421.86 427.5,451.5C 427.273,458.181 425.273,464.181 421.5,469.5C 387.701,436.201 354.035,402.701 320.5,369C 319.207,368.51 317.873,368.343 316.5,368.5C 323.613,364.804 331.28,362.804 339.5,362.5 Z"/></g>
<g><path style="opacity:0.991" fill="#bea0be" d="M 339.5,362.5 C 356.855,361.254 372.521,365.754 386.5,376C 407.159,391.334 420.659,411.501 427,436.5C 427.499,441.489 427.666,446.489 427.5,451.5C 398.194,421.86 368.861,392.194 339.5,362.5 Z"/></g>
<g><path style="opacity:0.994" fill="#a277a1" d="M 428.5,364.5 C 448.5,384.167 468.5,403.833 488.5,423.5C 481.287,427.192 473.62,428.192 465.5,426.5C 452.782,412.78 439.448,399.78 425.5,387.5C 424.352,383.019 424.185,378.352 425,373.5C 425.505,370.135 426.672,367.135 428.5,364.5 Z"/></g>
<g><path style="opacity:0.994" fill="#b492b4" d="M 316.5,368.5 C 317.873,368.343 319.207,368.51 320.5,369C 354.035,402.701 387.701,436.201 421.5,469.5C 419.375,474.743 416.042,479.077 411.5,482.5C 376.167,446.5 340.5,410.833 304.5,375.5C 307.976,372.377 311.976,370.043 316.5,368.5 Z"/></g>
<g><path style="opacity:0.989" fill="#a67ea6" d="M 182.5,367.5 C 183.239,367.369 183.906,367.536 184.5,368C 204.087,387.085 223.087,406.585 241.5,426.5C 235.992,430.254 229.992,432.92 223.5,434.5C 209.167,419.5 194.5,404.833 179.5,390.5C 180.418,382.823 181.418,375.156 182.5,367.5 Z"/></g>
<g><path style="opacity:0.996" fill="#b08cb0" d="M 304.5,375.5 C 340.5,410.833 376.167,446.5 411.5,482.5C 407.909,486.299 403.909,489.633 399.5,492.5C 364.752,456.25 329.418,420.417 293.5,385C 294.738,384.31 294.738,383.81 293.5,383.5C 296.627,380.102 300.293,377.435 304.5,375.5 Z"/></g>
<g><path style="opacity:0.995" fill="#ac86ac" d="M 293.5,383.5 C 294.738,383.81 294.738,384.31 293.5,385C 329.418,420.417 364.752,456.25 399.5,492.5C 395.044,495.211 390.377,497.544 385.5,499.5C 351.451,464.45 316.784,430.117 281.5,396.5C 284.792,391.54 288.792,387.207 293.5,383.5 Z"/></g>
<g><path style="opacity:0.942" fill="#9a6d9a" d="M 425.5,387.5 C 439.448,399.78 452.782,412.78 465.5,426.5C 443.574,422.24 430.241,409.24 425.5,387.5 Z"/></g>
<g><path style="opacity:0.977" fill="#9d729d" d="M 179.5,390.5 C 194.5,404.833 209.167,419.5 223.5,434.5C 208.151,437.458 195.317,433.125 185,421.5C 180.079,411.762 178.245,401.428 179.5,390.5 Z"/></g>
<g><path style="opacity:0.995" fill="#a77fa7" d="M 281.5,396.5 C 316.784,430.117 351.451,464.45 385.5,499.5C 379.082,502.104 372.415,503.771 365.5,504.5C 334.5,473.167 303.5,441.833 272.5,410.5C 274.719,405.291 277.719,400.624 281.5,396.5 Z"/></g>
<g><path style="opacity:0.994" fill="#a379a3" d="M 272.5,410.5 C 303.5,441.833 334.5,473.167 365.5,504.5C 359.081,506.201 352.415,506.867 345.5,506.5C 318.833,479.5 292.167,452.5 265.5,425.5C 266.514,419.808 268.848,414.808 272.5,410.5 Z"/></g>
<g><path style="opacity:0.992" fill="#9f739f" d="M 265.5,425.5 C 292.167,452.5 318.833,479.5 345.5,506.5C 337.392,506.827 329.392,506.16 321.5,504.5C 301.833,484.167 281.833,464.167 261.5,444.5C 261.319,437.731 262.653,431.398 265.5,425.5 Z"/></g>
<g><path style="opacity:0.972" fill="#9b6d9b" d="M 261.5,444.5 C 281.833,464.167 301.833,484.167 321.5,504.5C 302.059,500.863 285.559,491.863 272,477.5C 264.184,467.886 260.684,456.886 261.5,444.5 Z"/></g>
</svg>
